<svg xmlns="http://www.w3.org/2000/svg" width="960" height="430" viewBox="0 0 960 430">
<rect width="100%" height="100%" fill="#ffffff"/>
<style>text{font-family:Arial,Helvetica,sans-serif;fill:#233044} .title{font-size:22px;font-weight:700} .label{font-size:12px} .small{font-size:10px;fill:#617084} .grid{stroke:#e6ebf0;stroke-width:1}</style>
<text x="28" y="34" class="title">Monthly subscription churn</text>
<line x1="72" y1="360.0" x2="936" y2="360.0" class="grid"/><text x="63" y="364.0" class="small" text-anchor="end">-0.4%</text>
<line x1="72" y1="286.5" x2="936" y2="286.5" class="grid"/><text x="63" y="290.5" class="small" text-anchor="end">1.1%</text>
<line x1="72" y1="213.0" x2="936" y2="213.0" class="grid"/><text x="63" y="217.0" class="small" text-anchor="end">2.7%</text>
<line x1="72" y1="139.5" x2="936" y2="139.5" class="grid"/><text x="63" y="143.5" class="small" text-anchor="end">4.2%</text>
<line x1="72" y1="66.0" x2="936" y2="66.0" class="grid"/><text x="63" y="70.0" class="small" text-anchor="end">5.8%</text>
<polyline points="72.0,nan 96.7,339.7 121.4,339.7 146.1,339.7 170.7,339.7 195.4,339.7 220.1,339.7 244.8,339.7 269.5,339.7 294.2,261.7 318.9,303.7 343.5,339.7 368.2,282.4 392.9,257.2 417.6,261.7 442.3,264.2 467.0,270.4 491.7,297.4 516.3,199.2 541.0,320.1 565.7,284.2 590.4,196.6 615.1,179.9 639.8,322.2 664.5,289.6 689.1,291.2 713.8,262.0 738.5,249.4 763.2,193.3 787.9,156.1 812.6,227.4 837.3,201.0 861.9,86.3 886.6,268.3 911.3,270.8 936.0,125.8" fill="none" stroke="#D95D39" stroke-width="3" stroke-linejoin="round" stroke-linecap="round"/>
<text x="72.0" y="395" class="label" text-anchor="middle">2023-01</text>
<text x="516.3" y="395" class="label" text-anchor="middle">2024-07</text>
<text x="936.0" y="395" class="label" text-anchor="middle">2025-12</text>
<text x="72" y="52" class="small">Rate</text>
</svg>